<svg id="visual" viewBox="0 0 900 600" width="900" height="600" xmlns="http://www.w3.org/2000/svg" xmlns:xlink="http://www.w3.org/1999/xlink" version="1.1"><path d="M0 238L50 228.8C100 219.7 200 201.3 300 203C400 204.7 500 226.3 600 231.5C700 236.7 800 225.3 850 219.7L900 214L900 601L850 601C800 601 700 601 600 601C500 601 400 601 300 601C200 601 100 601 50 601L0 601Z" fill="#b9b5ff"></path><path d="M0 296L50 311.3C100 326.7 200 357.3 300 364.2C400 371 500 354 600 338.8C700 323.7 800 310.3 850 303.7L900 297L900 601L850 601C800 601 700 601 600 601C500 601 400 601 300 601C200 601 100 601 50 601L0 601Z" fill="#948cff"></path><path d="M0 398L50 409.7C100 421.3 200 444.7 300 444.3C400 444 500 420 600 409C700 398 800 400 850 401L900 402L900 601L850 601C800 601 700 601 600 601C500 601 400 601 300 601C200 601 100 601 50 601L0 601Z" fill="#6c63ff"></path></svg>