<svg id="visual" viewBox="0 0 900 200" width="900" height="200" xmlns="http://www.w3.org/2000/svg" xmlns:xlink="http://www.w3.org/1999/xlink" version="1.1"><path d="M0 93L21.5 90.2C43 87.3 86 81.7 128.8 75.2C171.7 68.7 214.3 61.3 257.2 61.8C300 62.3 343 70.7 385.8 76.3C428.7 82 471.3 85 514.2 87.5C557 90 600 92 642.8 86.5C685.7 81 728.3 68 771.2 62.3C814 56.7 857 58.3 878.5 59.2L900 60L900 201L878.5 201C857 201 814 201 771.2 201C728.3 201 685.7 201 642.8 201C600 201 557 201 514.2 201C471.3 201 428.7 201 385.8 201C343 201 300 201 257.2 201C214.3 201 171.7 201 128.8 201C86 201 43 201 21.5 201L0 201Z" fill="#6C63FF" stroke-linecap="round" stroke-linejoin="miter"></path></svg>