<svg id="visual" viewBox="0 0 1920 200" width="1920" height="200" xmlns="http://www.w3.org/2000/svg" xmlns:xlink="http://www.w3.org/1999/xlink" version="1.1"><path d="M0 72L40 80.7C80 89.3 160 106.7 240 110.2C320 113.7 400 103.3 480 97.8C560 92.3 640 91.7 720 84.8C800 78 880 65 960 70.2C1040 75.3 1120 98.7 1200 107.2C1280 115.7 1360 109.3 1440 100.8C1520 92.3 1600 81.7 1680 78.7C1760 75.7 1840 80.3 1880 82.7L1920 85L1920 0L1880 0C1840 0 1760 0 1680 0C1600 0 1520 0 1440 0C1360 0 1280 0 1200 0C1120 0 1040 0 960 0C880 0 800 0 720 0C640 0 560 0 480 0C400 0 320 0 240 0C160 0 80 0 40 0L0 0Z" fill="#ffb3b3" stroke-linecap="round" stroke-linejoin="miter"></path></svg>