<svg width="250" height="250" viewBox="0 0 250 250" fill="none" xmlns="http://www.w3.org/2000/svg">
<rect x="94.5559" y="73.2106" width="22.5504" height="6.44298" rx="2" transform="rotate(45 94.5559 73.2106)" fill="white"/>
<rect x="110.502" y="77.7665" width="22.5504" height="6.44298" rx="2" transform="rotate(135 110.502 77.7665)" fill="white"/>
<rect width="22.2762" height="6.36464" rx="2" transform="matrix(0.698295 0.71581 -0.698295 0.71581 143.444 73.2106)" fill="white"/>
<rect width="22.2762" height="6.36464" rx="2" transform="matrix(-0.698295 0.71581 -0.698295 -0.71581 159 77.7665)" fill="white"/>
<rect x="130" width="35" height="10" transform="rotate(90 130 0)" fill="white"/>
<rect x="180" y="10" width="180" height="10" transform="rotate(-180 180 10)" fill="white"/>
<circle cx="124.5" cy="92.5" r="54" stroke="white" stroke-width="7"/>
<path d="M80.4538 221V186.44H91.6378C91.9098 186.44 92.4698 186.448 93.3178 186.464C94.1658 186.48 94.9818 186.536 95.7658 186.632C98.5498 186.968 100.91 187.936 102.846 189.536C104.782 191.136 106.254 193.168 107.262 195.632C108.27 198.096 108.774 200.792 108.774 203.72C108.774 206.648 108.27 209.344 107.262 211.808C106.254 214.272 104.782 216.304 102.846 217.904C100.91 219.504 98.5498 220.472 95.7658 220.808C94.9818 220.904 94.1658 220.96 93.3178 220.976C92.4698 220.992 91.9098 221 91.6378 221H80.4538ZM87.0778 214.856H91.6378C92.0698 214.856 92.6538 214.848 93.3898 214.832C94.1258 214.8 94.7898 214.728 95.3818 214.616C96.8858 214.312 98.1098 213.608 99.0538 212.504C100.014 211.4 100.718 210.072 101.166 208.52C101.63 206.968 101.862 205.368 101.862 203.72C101.862 201.992 101.622 200.352 101.142 198.8C100.678 197.248 99.9658 195.936 99.0058 194.864C98.0458 193.792 96.8378 193.112 95.3818 192.824C94.7898 192.696 94.1258 192.624 93.3898 192.608C92.6538 192.592 92.0698 192.584 91.6378 192.584H87.0778V214.856ZM124.621 221V186.44H131.149V221H124.621ZM147.954 221V186.44H170.514V192.536H154.482V199.928H167.634V206.024H154.482V214.904H170.514V221H147.954Z" fill="#A82929"/>
</svg>
