<svg width="251" height="250" viewBox="0 0 251 250" fill="none" xmlns="http://www.w3.org/2000/svg">
<path d="M101 115.646C101 113.373 103.231 111.81 105.316 112.717C110.998 115.191 116.369 118 126 118C135.631 118 141.002 115.191 146.684 112.717C148.769 111.81 151 113.373 151 115.646V115.646C151 117.055 150.104 118.302 148.797 118.828C142.255 121.46 136.813 125 126 125C115.187 125 109.745 121.46 103.203 118.828C101.896 118.302 101 117.055 101 115.646V115.646Z" fill="white"/>
<circle cx="125.5" cy="92.5" r="54" stroke="white" stroke-width="7"/>
<circle cx="101" cy="83" r="9" fill="white"/>
<circle cx="150" cy="83" r="9" fill="white"/>
<rect x="0.6698" y="98.1195" width="7" height="100" rx="3.5" transform="rotate(-45 0.6698 98.1195)" fill="white"/>
<rect x="245.38" y="93.1698" width="7" height="100" rx="3.5" transform="rotate(45 245.38 93.1698)" fill="white"/>
<path d="M61.1553 231L71.7153 196.44H81.4593L92.0193 231H85.2993L75.8913 200.52H77.1393L67.8753 231H61.1553ZM67.4913 223.8V217.704H85.7313V223.8H67.4913ZM96.8009 231V196.44H103.329V224.904H118.209V231H96.8009ZM122.77 231V196.44H129.298V231H122.77ZM143.933 231L133.373 196.44H140.093L148.733 224.856L157.517 196.44H164.237L153.677 231H143.933ZM167.852 231V196.44H190.412V202.536H174.38V209.928H187.532V216.024H174.38V224.904H190.412V231H167.852Z" fill="#29A854"/>
</svg>
