<svg id="visual" viewBox="0 0 900 600" width="900" height="600" xmlns="http://www.w3.org/2000/svg" xmlns:xlink="http://www.w3.org/1999/xlink" version="1.1"><path d="M0 440L21.5 435.8C43 431.7 86 423.3 128.8 413.7C171.7 404 214.3 393 257.2 393.7C300 394.3 343 406.7 385.8 415C428.7 423.3 471.3 427.7 514.2 431.5C557 435.3 600 438.7 642.8 430.5C685.7 422.3 728.3 402.7 771.2 394.2C814 385.7 857 388.3 878.5 389.7L900 391L900 601L878.5 601C857 601 814 601 771.2 601C728.3 601 685.7 601 642.8 601C600 601 557 601 514.2 601C471.3 601 428.7 601 385.8 601C343 601 300 601 257.2 601C214.3 601 171.7 601 128.8 601C86 601 43 601 21.5 601L0 601Z" fill="#6C63FF" stroke-linecap="round" stroke-linejoin="miter"></path></svg>