<svg id="visual" viewBox="0 0 900 400" width="900" height="400" xmlns="http://www.w3.org/2000/svg" xmlns:xlink="http://www.w3.org/1999/xlink" version="1.1"><path d="M0 187L21.5 181.5C43 176 86 165 128.8 152.2C171.7 139.3 214.3 124.7 257.2 125.5C300 126.3 343 142.7 385.8 153.7C428.7 164.7 471.3 170.3 514.2 175.5C557 180.7 600 185.3 642.8 174.7C685.7 164 728.3 138 771.2 126.5C814 115 857 118 878.5 119.5L900 121L900 401L878.5 401C857 401 814 401 771.2 401C728.3 401 685.7 401 642.8 401C600 401 557 401 514.2 401C471.3 401 428.7 401 385.8 401C343 401 300 401 257.2 401C214.3 401 171.7 401 128.8 401C86 401 43 401 21.5 401L0 401Z" fill="#6C63FF" stroke-linecap="round" stroke-linejoin="miter"></path></svg>