<svg width="543" height="536" viewBox="0 0 543 536" fill="none" xmlns="http://www.w3.org/2000/svg">
<path fill-rule="evenodd" clip-rule="evenodd" d="M37.3284 236.722C183.089 173.217 280.285 131.35 328.917 111.122C467.773 53.3674 496.625 43.3348 515.431 43.0035C519.568 42.9307 528.816 43.9557 534.806 48.8167C539.865 52.9212 541.257 58.4658 541.923 62.3573C542.589 66.2488 543.418 75.1138 542.759 82.0407C535.234 161.102 502.675 352.965 486.111 441.515C479.102 478.984 465.301 491.548 451.941 492.777C422.905 495.449 400.856 473.588 372.733 455.153C328.727 426.306 303.866 408.349 261.15 380.2C211.784 347.669 243.786 329.789 271.919 300.569C279.282 292.921 407.215 176.556 409.691 166C410.001 164.68 410.288 159.759 407.365 157.16C404.441 154.562 400.126 155.45 397.012 156.157C392.599 157.159 322.298 203.625 186.11 295.556C166.155 309.259 148.081 315.935 131.887 315.585C114.034 315.199 79.6928 305.491 54.1636 297.192C22.8511 287.014 -2.03552 281.632 0.131547 264.346C1.26029 255.343 13.6592 246.135 37.3284 236.722Z" fill="white"/>
</svg>
