<svg width="420" height="45" viewBox="0 0 420 45" fill="none" xmlns="http://www.w3.org/2000/svg">
<path d="M0 11.0526H11.0526V22.1053H0V11.0526Z" fill="#04091A"/>
<path d="M0 22.1053H11.0526V33.1579H0V22.1053Z" fill="#04091A"/>
<path d="M0 33.1579H11.0526V44.2105H0V33.1579Z" fill="#04091A"/>
<path d="M11.0526 33.1579H22.1053V44.2105H11.0526V33.1579Z" fill="#04091A"/>
<path d="M22.1053 33.1579H33.1579V44.2105H22.1053V33.1579Z" fill="#04091A"/>
<path d="M22.1053 22.1053H33.1579V33.1579H22.1053V22.1053Z" fill="#04091A"/>
<path d="M33.1579 22.1053H44.2105V33.1579H33.1579V22.1053Z" fill="#04091A"/>
<path d="M33.1579 11.0526H44.2105V22.1053H33.1579V11.0526Z" fill="#04091A"/>
<path d="M33.1579 33.1579H44.2105V44.2105H33.1579V33.1579Z" fill="#04091A"/>
<path d="M44.2105 33.1579H55.2632V44.2105H44.2105V33.1579Z" fill="#04091A"/>
<path d="M55.2632 33.1579H66.3158V44.2105H55.2632V33.1579Z" fill="#04091A"/>
<path d="M66.3158 33.1579H77.3684V44.2105H66.3158V33.1579Z" fill="#04091A"/>
<path d="M77.3684 33.1579H88.4211V44.2105H77.3684V33.1579Z" fill="#04091A"/>
<path d="M88.4211 33.1579H99.4737V44.2105H88.4211V33.1579Z" fill="#04091A"/>
<path d="M99.4737 33.1579H110.526V44.2105H99.4737V33.1579Z" fill="#04091A"/>
<path d="M110.526 33.1579H121.579V44.2105H110.526V33.1579Z" fill="#04091A"/>
<path d="M121.579 33.1579H132.632V44.2105H121.579V33.1579Z" fill="#04091A"/>
<path d="M132.632 33.1579H143.684V44.2105H132.632V33.1579Z" fill="#04091A"/>
<path d="M143.684 33.1579H154.737V44.2105H143.684V33.1579Z" fill="#04091A"/>
<path d="M154.737 33.1579H165.789V44.2105H154.737V33.1579Z" fill="#04091A"/>
<path d="M176.842 33.1579H187.895V44.2105H176.842V33.1579Z" fill="#04091A"/>
<path d="M187.895 33.1579H198.947V44.2105H187.895V33.1579Z" fill="#04091A"/>
<path d="M198.947 33.1579H210V44.2105H198.947V33.1579Z" fill="#04091A"/>
<path d="M210 33.1579H221.053V44.2105H210V33.1579Z" fill="#04091A"/>
<path d="M221.053 33.1579H232.105V44.2105H221.053V33.1579Z" fill="#04091A"/>
<path d="M232.105 33.1579H243.158V44.2105H232.105V33.1579Z" fill="#04091A"/>
<path d="M243.158 33.1579H254.211V44.2105H243.158V33.1579Z" fill="#04091A"/>
<path d="M254.211 33.1579H265.263V44.2105H254.211V33.1579Z" fill="#04091A"/>
<path d="M265.263 33.1579H276.316V44.2105H265.263V33.1579Z" fill="#04091A"/>
<path d="M265.263 22.1053H276.316V33.1579H265.263V22.1053Z" fill="#04091A"/>
<path d="M276.316 22.1053H287.368V33.1579H276.316V22.1053Z" fill="#04091A"/>
<path d="M276.316 33.1579H287.368V44.2105H276.316V33.1579Z" fill="#04091A"/>
<path d="M287.368 33.1579H298.421V44.2105H287.368V33.1579Z" fill="#04091A"/>
<path d="M298.421 22.1053H309.474V33.1579H298.421V22.1053Z" fill="#04091A"/>
<path d="M298.421 33.1579H309.474V44.2105H298.421V33.1579Z" fill="#04091A"/>
<path d="M309.474 33.1579H320.526V44.2105H309.474V33.1579Z" fill="#04091A"/>
<path d="M320.526 33.1579H331.579V44.2105H320.526V33.1579Z" fill="#04091A"/>
<path d="M320.526 22.1053H331.579V33.1579H320.526V22.1053Z" fill="#04091A"/>
<path d="M309.474 22.1053H320.526V33.1579H309.474V22.1053Z" fill="#04091A"/>
<path d="M320.526 11.0526H331.579V22.1053H320.526V11.0526Z" fill="#04091A"/>
<path d="M331.579 33.1579H342.632V44.2105H331.579V33.1579Z" fill="#04091A"/>
<path d="M342.632 33.1579H353.684V44.2105H342.632V33.1579Z" fill="#04091A"/>
<path d="M364.737 33.1579H375.789V44.2105H364.737V33.1579Z" fill="#04091A"/>
<path d="M375.789 33.1579H386.842V44.2105H375.789V33.1579Z" fill="#04091A"/>
<path d="M386.842 33.1579H397.895V44.2105H386.842V33.1579Z" fill="#04091A"/>
<path d="M397.895 33.1579H408.947V44.2105H397.895V33.1579Z" fill="#04091A"/>
<path d="M408.947 33.1579H420V44.2105H408.947V33.1579Z" fill="#04091A"/>
<path d="M342.632 22.1053H353.684V33.1579H342.632V22.1053Z" fill="#04091A"/>
<path d="M342.632 11.0526H353.684V22.1053H342.632V11.0526Z" fill="#04091A"/>
<path d="M353.684 22.1053H364.737V33.1579H353.684V22.1053Z" fill="#04091A"/>
<path d="M364.737 22.1053H375.789V33.1579H364.737V22.1053Z" fill="#04091A"/>
<path d="M375.789 22.1053H386.842V33.1579H375.789V22.1053Z" fill="#04091A"/>
<path d="M386.842 22.1053H397.895V33.1579H386.842V22.1053Z" fill="#04091A"/>
<path d="M375.789 11.0526H386.842V22.1053H375.789V11.0526Z" fill="#04091A"/>
<path d="M397.895 11.0526H408.947V22.1053H397.895V11.0526Z" fill="#04091A"/>
<path d="M408.947 11.0526H420V22.1053H408.947V11.0526Z" fill="#04091A"/>
<path d="M408.947 0H420V11.0526H408.947V0Z" fill="#04091A"/>
<path d="M408.947 22.1053H420V33.1579H408.947V22.1053Z" fill="#04091A"/>
<path d="M143.684 22.1053H154.737V33.1579H143.684V22.1053Z" fill="#04091A"/>
<path d="M110.526 22.1053H121.579V33.1579H110.526V22.1053Z" fill="#04091A"/>
<path d="M44.2105 22.1053H55.2632V33.1579H44.2105V22.1053Z" fill="#04091A"/>
<path d="M55.2632 22.1053H66.3158V33.1579H55.2632V22.1053Z" fill="#04091A"/>
<path d="M66.3158 22.1053H77.3684V33.1579H66.3158V22.1053Z" fill="#04091A"/>
<path d="M77.3684 22.1053H88.4211V33.1579H77.3684V22.1053Z" fill="#04091A"/>
</svg>
